<?xml version="1.0" encoding="UTF-8" standalone="no"?>
<svg width="299px" height="197px" viewBox="0 0 299 197" version="1.1" xmlns="http://www.w3.org/2000/svg" xmlns:xlink="http://www.w3.org/1999/xlink">
    <!-- Generator: Sketch 46.1 (44463) - http://www.bohemiancoding.com/sketch -->
    <title>Blizz_BattleNet_Logo_White</title>
    <desc>Created with Sketch.</desc>
    <defs></defs>
    <g id="D2-BETA---BETA-Page---08/15" stroke="none" stroke-width="1" fill="none" fill-rule="evenodd">
        <g id="Desktop-BETA-Overview-8-15" transform="translate(-786.000000, -931.000000)" fill-rule="nonzero" fill="#FFFFFF">
            <g id="Group-17" transform="translate(786.000000, 894.000000)">
                <g id="Blizz_BNet_Logo" transform="translate(0.000000, 36.849976)">
                    <g id="Blizz_BattleNet_Logo_White">
                        <g id="bnet" transform="translate(0.000000, 1.000000)">
                            <path d="M140.655226,95.2171848 L140.807838,95.5806653 L140.424939,95.686224 C139.026037,96.0053897 139.670095,97.1351665 138.498742,98.3787177 C138.332188,98.6368884 138.212937,100.385329 138.226629,102.38945 C138.226629,106.441759 138.531853,111.926331 138.540318,111.937285 L138.556998,112.303753 L138.187792,112.303753 C137.82705,112.256699 135.298371,113.26125 134.848751,114.105221 L134.743192,114.269037 L124.370805,114.269037 L124.265246,114.105221 C123.68791,113.161417 123.668491,113.186562 123.612973,113.214197 C123.487996,113.200255 123.13547,113.289133 122.516557,113.289133 C121.400722,113.308552 121.117655,113.67502 120.767868,114.121902 C120.462395,114.566045 120.084973,115.245953 119.074696,115.245953 L119.041336,115.245953 C119.019178,115.229272 117.00958,114.865792 116.002042,113.783068 L108.927119,113.783068 L108.827286,113.616515 C108.341567,112.783746 107.900162,112.847729 107.866802,111.953965 C107.966634,111.498868 108.188706,111.440611 108.488453,111.06294 C108.73542,110.804769 109.01301,110.52718 109.229604,110.332992 L109.229604,104.420958 L109.374001,104.321125 C110.226188,103.693748 110.159467,103.749266 110.162206,103.588438 C110.162206,103.460722 110.13731,103.233173 110.134322,102.889112 C110.120381,102.883634 110.131584,102.866954 110.095485,102.778076 C110.067601,102.686459 110.020548,102.567207 109.956814,102.417334 C109.840301,102.125803 109.673748,101.751119 109.485037,101.36822 C109.13251,100.618853 108.624634,99.8137186 108.466296,99.7305662 L108.174764,99.5251749 L108.385633,99.2421082 C108.818573,98.6480916 108.951766,98.1068543 108.951766,97.6323381 C108.957243,96.6775795 108.402313,95.9919459 108.399326,95.9919459 L108.332604,95.9115321 L108.318663,95.8226536 C108.249203,95.3590916 108.216092,94.8678951 108.216092,94.3597694 C108.221569,91.481552 109.234584,88.1091507 109.229107,86.3883447 L109.229107,86.1996336 L109.220891,86.0163997 L109.373503,85.9053639 C110.283947,85.3892714 109.978474,82.4164496 111.080367,80.1349875 C112.087905,78.1754296 114.299908,75.6609417 114.25858,75.7219367 C114.563804,75.1806994 114.175179,72.3331041 118.110975,68.0948226 C118.313628,67.0900233 119.956759,58.9851565 121.544371,56.5371407 C121.724867,56.3150691 122.179964,56.0237868 122.782197,55.5574863 C123.187502,55.2520133 123.584343,54.9579925 123.778531,54.8163347 C123.870148,54.2917777 124.397444,52.8234163 127.41458,50.0286003 C127.284126,49.5346653 126.973176,48.2577535 126.970437,46.8366944 C126.970437,45.9262506 127.095415,44.9632764 127.494994,44.0971474 L127.533832,44.0110075 L127.603291,43.9639542 C129.565588,42.567791 130.736941,39.370408 133.82055,36.4837261 L133.82055,30.3496203 L123.828572,30.2525262 C122.335315,31.6598926 118.388565,31.8125046 118.360681,37.0249634 L118.360681,37.3720125 L118.006661,37.3720125 C117.69845,37.3580708 116.785516,37.649602 116.044365,38.113164 C115.281056,38.5794646 114.703719,39.217796 114.725877,39.7201957 L114.725877,47.089388 C114.689778,47.8081332 114.145802,48.5744296 112.857936,50.7087569 L112.635864,51.0752248 L112.324914,50.7836936 C111.664425,50.1869384 111.456047,49.6317594 111.464511,49.1739234 C111.469988,48.8268743 111.542187,48.5744296 111.539448,48.3884571 C111.531232,48.1469667 111.486669,47.8972606 110.770662,47.3697161 L110.645684,47.2865637 L110.623527,47.1339517 C110.623527,47.1339517 110.359879,45.2408659 110.132331,44.0612973 C110.035236,43.367448 109.985196,42.7012331 109.865944,42.7067102 L109.638396,42.5540983 L109.732751,42.2986661 C109.730012,42.2904505 110.579212,40.0505645 110.576474,38.0297627 C110.576474,37.0167477 110.359879,36.0951007 109.813165,35.5456478 C109.507941,35.2374363 109.31923,35.098766 108.958239,34.8517985 L108.802888,34.7492273 L108.802888,26.0949076 L108.875087,26.0060291 C108.872348,25.9975645 109.746693,24.8125187 109.721548,23.9854763 C109.721548,23.9244813 109.721548,23.8632373 109.716071,23.8049808 L109.663291,23.4108784 L110.062871,23.4108784 C122.89149,23.4108784 124.071058,23.5134496 136.6669,23.5134496 L137.0137,23.5134496 L137.0137,28.5317202 C136.936025,29.3117094 137.843481,29.4254838 137.921405,30.7382456 L137.921405,47.3500483 L137.799167,47.455607 C136.944241,48.1746012 136.680593,49.4096878 136.68607,50.5643605 C136.680344,51.8604421 136.999759,52.9874804 136.999759,52.9874804 L137.074695,53.2234938 L136.866565,53.3678901 C134.215897,55.2109351 132.864048,62.5744013 131.270958,64.4674871 L131.270958,68.7418676 L131.06009,68.8334846 C131.054613,68.8389617 127.382465,70.4210974 126.708034,72.3196603 C126.536003,72.7583264 126.469282,73.3578201 126.469282,73.9518368 C126.469282,75.134144 126.721976,76.2888168 126.721976,76.2888168 L126.785709,76.5776095 L126.513597,76.6886453 C123.510402,77.8126961 118.686569,91.3105171 118.783663,92.0875187 L118.783663,94.5410117 L118.408979,94.5771107 L118.603167,94.7576062 C118.603167,94.7576062 118.592213,94.7630833 118.575533,94.7991823 C118.533957,94.8601774 118.4757,94.9796778 118.406241,95.1377669 C118.264832,95.4459784 118.084336,95.91203 117.867742,96.4699475 C117.445756,97.5939983 116.904519,99.1148901 116.335647,100.683084 C115.261388,103.625284 114.151279,106.664578 113.410127,107.80257 C113.90705,108.515838 113.948626,108.510361 113.981987,108.485465 C114.073604,108.488204 114.351193,108.429948 114.800813,108.429948 C115.60296,108.457582 115.938806,107.97485 119.421994,106.248318 C120.171361,105.987409 121.067863,106.503501 123.737951,105.265676 C124.154211,105.151902 125.236685,103.125623 126.541231,101.230047 C127.826359,99.4094088 129.497124,97.5663639 131.742736,97.3943331 C131.887132,96.436836 132.458743,94.4745396 133.408024,93.550154 L133.729928,93.2446811 L133.949261,93.6248418 C134.118554,93.9245887 134.254485,94.1187769 134.432242,94.3547902 C137.318924,93.0226095 136.033797,91.6042889 137.540996,89.7751857 L137.640828,89.6559342 L140.205357,89.6559342 L140.191415,90.0169251 C140.191415,90.0169251 140.177723,90.3721898 140.177723,90.9104396 C140.169507,92.1141574 140.258386,94.2985254 140.655226,95.2171848 Z M177.528823,105.897535 L177.426002,105.730981 L172.851875,105.730981 C172.582501,105.392396 172.332795,105.128749 172.019107,104.837217 L171.708157,104.548425 L171.486085,104.914893 C169.07143,108.842473 167.544812,107.651701 163.861709,110.208014 C163.206698,110.727094 160.181346,111.035057 158.815804,112.475784 C158.108013,113.233615 158.016396,114.135595 157.927518,114.787868 C157.821959,115.490182 157.771918,115.739888 157.405699,115.806609 C156.059577,115.806609 154.988057,116.197973 153.97778,116.184031 C153.469903,116.184031 152.972981,116.100878 152.406848,115.834243 L152.112578,115.689847 L151.95175,115.972913 C151.6408,116.55025 151.393833,116.805682 151.349518,116.777799 C151.091347,116.786263 150.988776,116.661286 150.644465,116.316975 C150.910852,115.809098 151.405036,114.907119 151.466031,114.260323 C151.599224,113.927216 152.312492,112.234293 152.326434,111.234971 C152.326434,111.160034 152.320957,111.082359 152.312492,111.010161 C152.406848,110.868752 152.506929,110.688256 152.715059,110.355149 C153.542102,108.945044 155.185232,105.914215 155.554439,103.427361 C155.643317,102.794507 155.67369,102.070036 155.67369,101.367971 C155.67369,100.160519 155.58755,99.0501607 155.562654,98.7534013 L158.28826,90.9151699 L158.28826,80.7870117 C158.857381,78.3001582 160.259021,78.411194 160.991708,76.4792706 L161.013865,76.4264913 L161.013865,73.3179867 C163.409102,70.7616736 163.164873,65.6547735 164.494315,64.8635812 L164.632985,64.7637485 L164.907836,55.8624613 C164.852318,55.5099351 164.830161,55.260229 164.830161,55.0132614 C164.810742,53.3507119 165.934793,52.0822648 166.398355,49.908851 C166.856191,47.7105412 167.35859,44.252249 167.35859,44.252249 C167.422573,42.4565062 168.53542,43.1642973 169.168275,41.5988418 C169.298729,41.1437444 169.340306,40.6328801 169.340306,40.138945 C169.340306,39.4172123 169.254166,38.7455204 169.201635,38.4318318 C170.972482,36.752602 171.44426,36.4583322 171.899606,34.7126303 C172.013381,34.2602714 172.044002,33.7494072 172.044002,33.2636878 C172.044002,32.542204 171.971804,31.8675246 171.92749,31.5565745 C174.569943,28.8974413 174.877905,25.6918426 175.685529,24.7786603 L175.765943,24.6788276 L175.765943,23.5129517 L175.460719,23.4713755 C175.385782,23.4631599 175.308107,23.4631599 175.252589,23.4631599 C174.988941,23.4631599 174.802968,23.4935329 174.741973,23.4907943 C174.708613,23.5074746 174.680978,23.5684696 174.128538,22.6580258 L174.025967,22.485995 L173.823314,22.485995 C157.164209,22.485995 149.450955,22.4665762 145.923203,22.4665762 C144.155095,22.4665762 143.444565,22.4665762 143.147557,22.485995 L142.822665,22.5081524 L142.822665,39.3836028 C142.286905,39.8942182 141.4987,40.6465729 141.459863,41.4985112 C141.48202,42.5588285 141.945582,43.0667052 141.93164,44.0244513 C141.93164,44.5101707 141.82882,45.143025 141.48202,46.0395271 L141.384926,46.3004363 L141.618201,46.4560358 C141.787493,46.558856 142.306573,47.0445754 142.708891,47.4080558 L143.02258,47.6883838 L143.244651,47.327642 C143.755266,46.5364496 144.027379,46.5364496 144.421481,46.5172798 C144.563139,46.5088152 144.721228,46.5312215 144.909939,46.5312215 C146.075566,46.5090641 146.974807,45.7679126 147.829733,40.3279051 C148.259934,37.7242898 148.853951,35.7258943 149.456183,34.3937136 C150.036258,33.0448526 150.72463,32.4590516 150.896661,32.5202956 C151.507358,32.4924122 152.797963,31.9290175 153.988734,31.931756 C154.574286,31.931756 155.06847,32.0676878 155.418258,32.4174754 C155.706802,32.7117452 155.804145,32.9171366 156.045635,33.3251807 L156.139991,33.5029376 L160.95287,33.5029376 C161.416432,34.0581166 161.43859,33.8943014 161.444316,34.1579492 C161.444316,34.1718909 161.444316,34.1718909 161.444316,34.1803555 C161.494356,34.457945 160.872456,34.9712989 160.689222,35.0768576 L160.53661,35.1794288 L160.53661,38.4046953 C157.913825,41.0277294 154.247154,49.4654546 154.180433,50.3397993 C154.180433,50.3646953 154.227735,51.0891665 154.227735,51.8746328 C154.227735,52.2659967 154.219271,52.6740408 154.180433,53.0044097 C153.897366,55.5856187 151.660219,58.31695 151.452089,59.3800058 C151.446612,59.5659784 151.446612,59.7076361 151.446612,59.8463064 C151.446612,60.129373 151.452089,60.4097011 151.452089,60.9008976 C151.474246,62.2943222 150.183642,63.5821882 150.197584,63.5931424 L150.089286,63.6987011 L150.089286,63.8430974 C150.089286,64.1707277 150.017088,64.3567002 150.008873,64.6840816 C150.008873,64.8366936 150.044972,65.0087244 150.111444,65.1919584 C150.455505,65.8858077 150.963631,66.0247269 151.002469,66.2243922 L145.567938,80.66303 C145.551258,80.7295021 144.671436,85.0150858 144.671436,89.5725329 C144.671436,91.8485179 144.885292,94.2021782 145.5652,96.1311141 C145.953825,97.1498551 146.470167,97.3385662 146.456225,98.218388 C146.456225,98.2878476 146.783606,100.103009 146.783606,102.029206 C146.783606,102.99243 146.697466,103.977561 146.469918,104.752073 C146.220211,105.637621 145.604037,106.553542 145.54852,107.05868 L145.54852,107.114198 L145.567938,107.177932 C145.567938,107.177932 145.853744,108.038335 145.853744,108.835004 C145.853744,109.231845 145.776068,109.592587 145.61773,109.800966 C145.387194,110.092248 145.187529,110.189591 144.790688,110.458716 L144.588035,110.591909 L144.651769,110.838877 C144.651769,110.838877 144.882056,111.727163 144.882056,112.615201 C144.882056,113.053618 144.818073,113.483819 144.673926,113.783566 C144.290778,114.560817 143.805058,114.774424 142.9698,115.36844 L142.755944,115.518314 L142.842084,115.771007 C142.842084,115.771007 143.16125,116.71755 143.16125,117.58343 C143.16125,118.010893 143.077848,118.410473 142.894863,118.632545 C142.661838,118.93503 142.453459,119.029386 142.065082,119.298759 L141.91247,119.404318 L141.91247,123.026425 C141.915209,123.323434 141.7738,123.895293 141.7738,124.561259 C141.765585,125.274527 141.957034,126.126714 142.689721,126.912181 L142.789554,127.023216 L142.944904,127.023216 C144.846206,127.00081 147.31364,125.504814 148.235287,125.330045 C150.211525,125.332784 152.132246,125.168968 155.573858,125.168968 L155.629376,125.168968 L155.684893,125.14955 C156.85052,124.746983 158.266102,123.845003 159.140447,122.873565 L163.650841,123.356545 C163.861709,123.639612 164.028263,123.858945 164.214236,124.178111 L164.317056,124.355868 L177.986659,124.355868 L178.036699,124.053382 C178.056118,123.895293 178.07006,123.767577 178.07006,123.656541 C178.07006,123.517871 178.056118,123.415051 178.050641,123.378952 C178.106159,123.323434 178.320015,123.151403 178.800008,122.81008 L178.95262,122.712986 L178.95262,114.186382 C178.861003,113.173367 178.022758,112.84026 178.039438,111.235967 C178.064334,109.168112 178.772125,109.4818 178.95262,108.538245 C178.930463,107.265814 177.995123,106.696943 177.528823,105.897535 Z M136.181181,132.162979 C136.014627,131.824395 135.867492,131.532863 135.770398,131.316518 C135.728822,131.213947 135.687246,131.122081 135.662101,131.066812 L135.650898,131.075027 L135.650898,119.450624 L135.312313,119.445147 C135.306836,119.445147 126.944047,119.159342 118.850384,119.159342 C115.047781,119.159342 111.303684,119.223076 108.50588,119.403571 C107.098763,119.49245 105.941351,119.611701 105.100367,119.778255 C104.351,119.972443 103.781879,119.997588 103.587691,120.563721 C102.138749,121.476903 100.626072,121.782127 99.1606986,121.782127 C96.082567,121.790343 93.3014438,120.408122 91.7499301,120.380487 C91.6082723,120.380487 91.4668634,120.402644 91.3336703,120.430279 C89.8488776,121.368606 89.473945,121.498812 88.7191007,122.661949 C87.6615221,122.8173 86.7901649,122.872818 86.0046986,122.872818 C84.4641391,122.872818 83.2263139,122.667426 81.5582873,122.634066 C81.5082465,120.01377 80.3147361,120.005555 80.5674296,119.950037 C80.5674296,119.905473 80.5841099,119.80564 80.6341507,119.647551 C80.8507452,118.961918 80.8283389,118.787148 81.4114013,118.359685 L81.5585362,118.251388 L81.5585362,112.081432 C81.8139684,111.853883 82.0081565,111.692807 82.3133805,111.484677 L82.4659925,111.37638 L82.4659925,107.182662 C83.1819992,106.555534 83.4374313,106.40566 83.3679717,105.303767 L83.3679717,105.009497 C83.3819134,104.101792 83.1874763,104.265607 82.5020916,103.288691 C82.9656536,101.889789 82.8767752,101.154364 83.9871332,100.979346 L84.2674613,100.935031 L84.281403,100.654703 C84.281403,100.646487 84.3590783,98.7534013 84.3590783,97.2185679 C84.3536012,96.4413172 84.3396595,95.783567 84.2759259,95.4170991 L84.25103,95.2727027 L84.1317785,95.19204 C83.8763464,95.0172706 83.6433206,94.8146178 83.3684696,94.5840816 L83.3684696,88.0227619 C83.6293789,87.7894871 83.8208285,87.6286595 84.1263014,87.4232681 L84.2679592,87.3234355 L84.2819009,87.1514047 C84.2819009,87.1514047 84.7703589,79.3796453 84.7703589,73.5427968 C84.7564172,70.600597 84.6732648,68.2387211 84.2430633,67.3340033 C83.7516178,66.3680416 83.2855662,66.3346811 82.4667394,65.6159359 L82.4667394,46.2812664 C82.7249101,46.0452531 82.9190983,45.8841765 83.2161066,45.6845112 L83.3687186,45.5734754 L83.3687186,41.2769376 L83.2270608,41.1771049 C81.6282448,40.0224321 81.547831,39.3895779 81.5505695,39.3285828 L81.5587852,39.3064255 L81.5587852,39.2509076 C81.5894072,38.5792157 81.6613564,38.5652739 82.316617,38.0658618 L82.4664904,37.954826 L82.4664904,28.7565304 L82.3220941,28.6566978 C81.1397868,27.8211907 78.3113614,24.304642 78.3004072,24.304642 C78.0671324,24.1353497 77.9008276,24.0965121 77.7619084,24.0965121 C77.3595903,24.1104538 77.0902165,24.2603272 76.7904696,24.2518626 C76.3742098,24.2518626 75.7356295,24.0492098 74.69498,22.36998 L74.5921599,22.2034263 L67.2979042,22.2034263 C67.0870358,21.9315629 66.9371624,21.723184 66.7511898,21.3985412 L66.6456311,21.2207843 L65.0219192,21.2207843 L64.9664013,21.503851 C64.7166953,22.7167802 64.7804288,22.2450025 64.1308943,23.0693064 L63.9033455,23.3551116 L64.2003539,23.5771832 C69.1270075,27.1716561 67.714164,27.7099059 68.7772198,28.5093139 L69.0963855,28.6870708 L69.1658451,28.545413 C69.2629392,28.5426744 69.3879167,28.5371973 69.5323131,28.5371973 C70.2483197,28.5038368 71.3031599,28.7259084 71.3447361,29.0644929 C71.369632,29.1088077 72.7048002,31.5983997 72.9129301,34.1243397 L72.9129301,34.1937993 C72.943552,35.0596794 71.7970949,38.0713389 71.3975154,38.5431166 L71.1644896,38.8346478 L71.4754396,39.0509933 C71.7946053,39.2648493 71.9887935,39.431154 72.266383,39.6811091 C72.3858834,40.1944629 72.4329367,41.090965 72.4329367,42.0347694 C72.4329367,43.7613014 72.2858018,45.6902373 72.2414871,46.2120558 C71.5725337,46.8364455 71.2673097,47.3084721 70.5595187,47.8078843 L70.4151224,47.9104555 L70.4151224,55.3988993 L70.5677344,55.5014704 C70.8729584,55.7041232 71.064408,55.8706769 71.3198401,56.1037027 L71.3198401,69.8873289 L71.4751907,69.9871615 C71.7333614,70.1397735 72.4272107,71.0253214 72.4827286,71.7774271 C72.4827286,71.8302065 72.4854671,71.8857244 72.4854671,71.9327777 C72.5160891,72.8071224 71.6833206,73.9672723 71.4751907,74.0783081 L71.3198401,74.1781407 L71.3198401,84.0287094 C71.0589309,84.2535196 70.8590167,84.434015 70.5677344,84.6311907 L70.4427569,84.714343 L70.4178609,84.8642165 C70.4151224,84.8781582 70.1845862,86.2354838 70.1845862,88.2254147 C70.1845862,89.1886378 70.2401041,90.3014854 70.4011807,91.4810541 C70.0874921,91.9861923 70.3040866,91.8751565 69.6933897,92.1666878 L69.4767952,92.2583047 L69.5044296,104.748339 L69.6515645,104.85091 C70.4537111,105.420031 71.3253172,106.094461 71.3195912,107.27403 C71.3195912,107.612614 71.3444871,107.845889 71.3444871,107.967879 C71.3444871,108.134184 71.4084696,108.081654 70.5590208,108.703305 L70.4146245,108.805876 L70.4146245,112.019939 C70.1509767,112.247488 69.9483239,112.427983 69.6567927,112.622172 L69.5041807,112.72773 L69.5041807,120.213435 L69.6513156,120.318745 C70.1509767,120.679736 70.417363,120.884878 70.4146245,121.26255 C70.4285662,121.74553 69.892806,122.059219 69.6567927,122.197889 L69.5041807,122.294983 L69.5041807,126.511107 C67.1948351,128.609336 67.3392315,128.165441 66.2955945,129.192398 L63.6337227,130.60798 L63.6031007,130.782749 C63.3506561,131.990201 63.4116511,131.509959 62.7648551,132.342728 L62.5318293,132.628533 L62.8400408,132.850604 C63.2675037,133.144874 63.4340575,133.350266 63.6449259,133.713746 L63.8226828,134.030173 L64.1336328,133.835985 C64.5917177,133.541715 65.7102914,133.391842 66.9286978,133.397568 C69.373975,133.397568 72.2882914,133.883287 72.2937685,133.883287 L72.5740966,133.933328 L72.6823938,133.661216 C73.0710192,132.426129 77.6979259,129.41447 78.3584147,128.98153 L81.6613564,128.98153 C81.7280774,128.942692 83.9928593,129.617122 84.312025,130.288814 L84.4173347,130.449891 L84.617249,130.449891 C84.617249,130.449891 86.124448,130.449891 88.3755371,130.449891 C94.367985,130.449891 105.706085,130.472048 107.510292,130.621922 C107.765724,131.03843 108.126466,131.843316 109.55599,131.926468 L118.271305,131.926468 C118.882002,132.681312 119.40382,132.90911 119.85344,132.906122 C120.097669,132.897658 120.275426,132.853343 120.394678,132.856082 C120.575173,132.870023 120.783303,132.878239 121.321802,133.7247 L121.421634,133.891254 L124.399933,133.891254 C124.605325,134.171582 124.766401,134.38245 124.949386,134.696139 L125.051958,134.876634 L137.76954,134.876634 L137.408799,134.327182 C136.966647,133.661714 136.514039,132.828945 136.181181,132.162979 Z M63.8079942,108.512104 C63.4582065,110.374568 62.2813764,113.005818 62.2452773,113.078016 C62.2452773,113.080754 60.3661332,115.781464 59.6307077,117.654882 C58.7342057,119.908709 58.3677377,123.877617 58.3677377,123.877617 L58.3510575,124.08027 L58.1650849,124.169148 C58.1596078,124.177613 54.387627,125.912361 52.3113072,127.45541 C50.4488435,128.818461 48.5614838,130.017449 48.114602,131.277431 L48.0424038,131.480084 L47.839751,131.507719 C47.839751,131.507719 43.379398,132.143311 42.0636486,132.656914 C41.8831532,132.715171 41.811204,132.759485 41.8166811,132.770689 C41.561249,133.092842 41.2809209,133.300723 40.9368593,133.311926 C39.8959609,133.117489 39.6517319,131.910286 38.9524055,131.996177 C38.6832806,131.993438 38.2446145,132.157004 37.6117602,132.767701 C37.1621399,133.711505 35.7965987,133.741878 34.2976153,133.786442 C32.065945,133.786442 29.3821649,133.370182 28.7854097,133.267362 C28.4689825,133.419974 28.1137177,133.433916 27.7001965,133.439393 C26.7175545,133.439393 25.4408918,133.228525 24.7331007,133.231263 C24.566547,133.228525 24.4360924,133.245205 24.3833131,133.259147 L24.194602,133.592254 L23.8726978,133.295246 C23.4701307,132.934504 22.9512998,132.451523 22.784746,132.351441 L22.2046711,131.968293 L22.8514671,131.732529 C22.8514671,131.727052 24.9608984,130.908225 25.6019684,130.289312 L25.5935037,130.283835 C25.6019684,130.283835 25.5935037,130.283835 25.6019684,130.275619 C25.6186486,130.244998 25.6435445,130.18948 25.6741665,130.123007 C25.7379001,129.970396 25.8158243,129.751062 25.9044538,129.484676 C26.073746,128.943439 26.2818759,128.202287 26.4929933,127.361303 C26.9259334,125.690538 27.3812798,123.639114 27.6753006,122.101542 C27.6753006,116.783525 27.9972048,114.052442 27.9972048,111.265593 C27.9972048,109.874907 27.9195296,108.459574 27.6835162,106.674785 C27.5976253,106.025251 27.3115712,101.118016 26.8841082,97.565368 C26.8841082,91.8198876 27.2117386,85.9245337 27.2117386,82.4440841 C27.2117386,81.7806078 27.1977968,81.2035204 27.1701624,80.7399584 L27.1562206,80.4013739 L27.4893281,80.3710008 C28.2108118,80.3182215 28.5078201,79.7466112 28.5857444,79.5661157 L28.3748759,75.0226103 L27.6753006,73.554249 L27.7723947,66.9095279 C27.8973722,65.9463047 28.6440008,64.9472315 28.6327977,64.9611732 C28.7104729,64.8556145 28.7908868,64.2145445 28.7799326,63.5732256 C28.7799326,62.6934038 28.6995187,61.7413838 28.6743739,61.4692714 L27.6753006,59.8288793 L27.6753006,36.7137644 L27.825174,36.6111932 C28.6910541,35.9810774 28.6743739,35.9840649 28.6576936,35.8645645 C28.6631707,35.7119525 28.588234,35.3372689 28.588234,34.6849958 C28.588234,34.0272456 28.6270716,33.7080799 28.6270716,33.6109858 L28.6049142,33.6164629 C28.5160358,33.5333106 28.3467435,33.3806986 28.099776,33.0779642 C27.9110649,33.0946445 27.6195337,33.1113247 27.3225254,33.127756 C27.2809492,33.2221116 27.1893322,33.3331474 27.0033597,33.3470891 C26.7591307,33.2915712 26.7118285,33.2415304 26.6092573,33.1529009 L26.5816228,33.1529009 C26.4760641,33.1529009 26.4205462,33.158378 26.2958177,33.1304946 C26.2818759,33.1028601 26.0931649,33.1444363 26.0239542,32.7834455 C26.0600533,32.6168918 26.1071066,32.542204 26.1489317,32.5061049 C25.951756,32.292249 25.7657835,32.0841191 25.6993114,31.9897635 L22.687652,29.1058201 C22.290811,28.453547 22.0966228,28.3146278 22.0214371,28.2675745 C21.9547161,28.2593589 21.6245962,27.8846753 21.7162132,27.6653422 C21.7162132,27.4821082 21.7244288,27.2184604 21.7244288,26.7187993 C21.735632,25.8529192 21.6883297,25.6196445 21.9158784,25.2892756 C22.1100666,25.0560008 22.2323056,25.0560008 22.687403,24.3260525 L22.7902231,24.1512831 L27.6334754,24.1512831 C28.2857485,23.6934471 29.6734471,23.5629925 31.2640475,23.3269792 C32.9711607,23.1131232 34.7250783,22.9856561 35.3163564,22.9856561 L40.1180325,23.1467327 C44.9615337,23.1412556 46.7433347,22.674955 49.2914321,22.6694779 C50.4239475,22.6694779 51.7006103,22.7638335 53.4408351,23.0469001 L53.6683838,23.0802606 L53.7239017,23.3050708 C54.0791665,24.7151757 55.4641266,25.3116819 56.138806,25.8947444 C56.260796,25.8780641 56.44403,25.8586453 56.6661016,25.8586453 C57.2683339,25.8586453 58.1897319,25.9669425 59.0337036,26.5358143 C62.0617943,28.6009309 63.7106511,33.5470033 63.7273314,36.1560958 C63.7273314,38.7651882 64.3186095,41.2020008 64.321348,43.1478659 C64.321348,44.2858585 64.1050025,45.301612 63.4303231,45.9538851 L60.0524446,52.2682373 C58.7894746,54.6413164 55.7892673,58.2579467 54.7705262,59.4681374 C54.8342598,59.5903764 55.1591515,60.0342706 55.8059475,60.3813197 C56.5386345,60.8057952 57.6044288,61.2056236 58.9062365,61.3388168 C59.7223247,61.4692714 60.1164271,62.1437019 60.0830666,62.7486728 C60.0663863,63.9476603 59.1365237,65.2800899 59.0394296,65.4048185 C59.0200108,65.4102956 58.9644929,65.4936969 58.9644929,65.682408 C58.9562773,65.9184213 59.061587,66.2652215 59.2005062,66.5149276 C59.3449026,66.7843014 59.525149,66.8729309 59.5363522,66.8647152 C59.5363522,66.8647152 59.5751898,66.8813955 59.6862256,66.7148418 L59.9110358,66.353851 L60.2189983,66.6535978 C61.6151615,68.0218776 61.795657,68.4105029 61.8287685,68.782448 C61.856403,68.9071765 61.5790624,68.6659351 62.6752298,69.5123963 L62.8639409,69.6510666 L62.8111615,69.8786153 C62.8111615,69.8870799 62.0590558,72.9400666 62.0590558,76.0903963 C62.0590558,77.6585903 62.2450283,79.2407261 62.7862656,80.4618709 C63.0359717,81.2112381 64.5625895,81.6053405 64.7097244,82.7490591 C64.7097244,83.0015037 64.6041657,83.2293014 64.4239192,83.4374313 C64.4239192,83.7678002 64.4351224,84.6391574 64.4351224,85.5744971 C64.4351224,86.1712523 64.4296453,86.7901649 64.4239192,87.320448 C64.4239192,87.442438 64.4184421,87.5564613 64.4184421,87.6784513 C64.4184421,90.5399883 64.9484763,93.2767968 64.9514638,95.7748535 C64.9514638,97.7316728 64.6156178,99.5635146 63.3972115,101.134447 C63.3499092,101.186978 63.2861757,101.375689 63.2943913,101.681162 C63.2861757,102.783055 63.9245071,104.984103 63.9245071,107.074116 C63.9245071,107.562823 63.8966236,108.043065 63.8079942,108.512104 Z M51.5870849,100.876525 C51.6092423,100.268567 51.928408,99.7273297 51.9062506,99.3362148 C51.8950475,99.0974629 51.8562098,98.9336478 51.5121482,98.6976345 L51.068005,98.4202939 L51.4899908,98.1178085 C51.745423,97.9345745 51.8230983,97.7403863 51.8313139,97.3933372 C51.8646744,96.3248043 50.6350649,94.4374446 50.610169,92.6608718 C50.6019534,91.8587252 50.9014513,91.042637 51.6926436,90.4264629 C51.6620216,88.2948743 51.3455945,88.0145462 51.0458476,87.6896545 C50.6572223,87.3206969 50.1742415,86.7849367 50.207602,84.8642165 C50.2354854,83.8678818 51.1095812,82.0581973 51.0958884,81.0033572 C51.0846853,80.6147319 50.9987943,80.4509167 50.8404563,80.3705029 L50.5352323,80.2066878 L50.6851057,79.9014638 C50.8598751,79.5656178 50.9211191,79.2464521 50.9211191,78.9355021 C50.9295837,77.8112023 50.0607161,76.8400125 50.055239,76.8372739 L49.5555779,76.2848335 L50.2939908,76.2487344 C50.4077652,76.2432573 50.4854405,76.226577 50.518801,76.2153739 C50.4854405,75.9990283 49.8665279,75.3270874 49.8082714,74.6720758 C49.7970683,74.4806261 49.9053655,74.2363972 50.0525004,74.1614604 C50.1523331,74.0561507 50.182955,73.9672723 50.1856936,73.828353 C50.2494271,73.1123464 48.7230583,71.674358 48.7591574,71.7104571 C47.016194,70.7611757 45.0232756,68.8377169 45.0011182,68.8182981 L42.7557552,66.5034754 C42.7836386,67.6803056 42.8252148,69.8230974 42.8252148,71.7799167 C42.8252148,73.2094405 42.8003189,74.536144 42.7308593,75.3382906 L42.7196561,75.4438493 L42.6529351,75.5272506 C42.3170891,75.9298177 42.1505354,76.7844946 42.158751,77.733776 C42.1532739,79.6323389 42.7194072,81.8445903 42.7194072,81.8445903 L42.7415645,81.9250042 L41.7756028,86.6101674 L41.603572,86.679627 C41.1512132,86.8738152 40.9652406,87.1292473 40.9151998,87.6149667 C40.9097227,87.66202 40.9039967,87.6981191 40.9039967,87.7260025 C40.9151998,88.1977802 41.1370225,88.5391032 41.6060616,88.7335404 L41.8199176,88.8224188 L41.8199176,105.961517 L41.7337777,106.067076 C41.2565229,106.583417 40.9649917,106.691465 40.9094738,107.121916 C40.8539559,107.446559 40.8151182,107.663153 40.773542,107.815765 C40.706821,107.907133 40.7623389,108.01543 40.6236686,108.120989 C40.645826,108.998072 40.6737094,111.021613 40.6737094,115.356988 C40.6791865,115.356988 40.7486461,117.591397 40.7986869,118.532214 C40.8320475,118.55711 40.865408,118.584993 40.8875654,118.615615 C40.9652406,118.715448 40.9652406,118.798849 40.9652406,118.840425 C40.9012581,119.24847 40.4434221,119.978418 39.943761,120.958072 C39.7077477,121.393751 39.4719833,121.824201 39.2914879,122.145857 C39.9853372,122.05424 41.0541191,121.873993 41.7146078,121.624038 L43.8352423,119.703318 L43.9544938,119.695102 C45.4838501,119.667219 47.4073089,116.439214 48.6951749,115.454082 C49.9997211,114.38555 49.4057044,110.693983 49.9718376,107.679585 L49.9967336,107.543653 L50.0828734,107.482658 L50.0883505,107.479919 C50.1022923,107.446559 50.1299267,107.388302 50.1660258,107.316104 C50.2270208,107.163492 50.3104221,106.946898 50.3963131,106.691465 C50.573821,106.178112 50.7764738,105.484013 50.976388,104.776222 C51.3650133,103.366117 51.7063364,101.792446 51.6981207,101.376187 C51.6981207,101.376187 51.6981207,101.376187 51.6981207,101.367971 C51.623184,101.209633 51.5870849,101.034614 51.5870849,100.876525 Z M52.3586095,37.6379009 C50.8598751,37.1300241 49.5580674,38.0404679 48.2923589,35.4702132 L47.8788376,35.4617485 L43.8569017,36.0390849 L44.1011307,35.4702132 C44.1454455,35.3646545 44.1705903,35.2648218 44.1760674,35.1647402 C44.0734963,35.2202581 43.9539958,35.275776 43.8374829,35.3228293 C43.6154113,35.9723639 43.6487719,36.2803264 43.6348301,36.6079567 C43.6430458,37.0242165 43.3933397,37.424045 42.732851,37.7875254 L42.732851,55.1544213 C43.0908543,55.0379084 43.3990658,54.9933447 43.659975,54.9933447 L43.6988127,54.9933447 C44.1957352,54.9933447 44.5480125,55.2099392 44.6784671,55.2930916 C46.4881515,54.7518543 45.7248426,50.3191357 50.879045,49.7002231 C50.8735679,49.2423872 50.8511615,48.5069617 50.8511615,47.6741932 C50.9148951,45.6287444 50.8456844,43.1222231 51.739448,42.1368426 C51.5118993,41.5094654 50.8651032,39.699781 50.8456844,39.0004546 C50.8733189,38.9033605 50.7817019,38.7034463 51.0426112,38.564776 L52.3586095,37.6379009 Z M85.9125837,26.6991316 C86.209592,27.0182973 86.5509151,27.0710766 87.4003639,27.0795412 C87.6279126,27.9260025 88.5854097,28.1286553 89.3292998,28.3534654 C90.2452206,28.6198518 91.0279484,28.9059059 91.2472814,29.7663089 L92.4158959,49.5062839 L92.5630308,49.6118426 C93.0763847,49.908851 93.3457585,49.9588918 93.3178751,50.1087652 C93.3263397,50.1476028 93.3263397,50.1864405 93.3290783,50.2143239 C93.3041823,50.2282656 93.2596187,50.2531615 93.1931465,50.2919992 C93.0460117,50.3890933 92.8266786,50.5280125 92.5353963,50.7665154 L92.4022032,50.8693356 L92.6937344,89.6551873 C91.902791,90.5377477 91.5196428,92.305856 91.4947469,93.5215237 C91.5223813,95.2702132 92.4801274,95.8169276 92.4024521,96.4692007 C92.4106678,96.8715187 92.4440283,97.1463697 92.4412898,97.3017202 C92.4300866,97.5237918 92.4719117,97.5237918 91.6473589,98.145443 L91.4947469,98.2452756 L91.4947469,99.1002015 C91.5086886,101.328884 91.4252873,108.717495 90.7232223,110.860287 C87.7200275,112.875363 89.1771857,111.881767 86.5626162,115.162551 L86.3323289,115.448356 L86.6375529,115.661963 C87.2758843,116.06453 87.3092448,116.519628 87.8920583,116.694646 C87.8920583,116.694646 87.8920583,116.694646 87.8893197,116.697385 C87.9199417,116.730745 88.0670766,116.863938 88.2667419,116.863938 L88.2806836,116.863938 C88.766403,116.805682 89.1104646,116.494732 90.4013181,115.240226 C91.317239,114.865543 94.7230008,114.5409 97.4234613,114.551854 C99.1609475,114.532435 100.723664,114.718408 100.979097,114.926538 L101.14565,115.045789 L101.334361,114.948695 C102.089206,114.568535 102.519407,114.490859 102.713844,114.490859 C102.763885,114.490859 102.797246,114.496585 102.819403,114.504801 L102.888863,114.596418 L103.069358,114.596418 C103.310848,114.596418 103.513501,114.579738 103.699474,114.579738 C104.06868,114.588202 104.3988,114.621314 105.031654,114.871269 L105.595049,115.093341 L105.128749,111.7543 L105.012236,111.670898 C99.3362148,107.579752 99.591647,109.300558 98.8420308,106.205746 C98.6475937,105.386919 98.3978876,104.698547 98.3978876,104.129675 C98.4063522,103.749515 98.4922431,103.427361 98.7810358,103.069358 C99.0225262,102.764134 99.2167144,102.658575 99.6053397,102.400405 L99.7524746,102.306049 L100.243671,95.4086345 L100.099275,95.3003372 C99.8189467,94.9699684 98.9309092,92.396975 98.8557236,91.8836211 L98.8557236,91.5226303 C98.8502465,88.8719617 97.9537444,87.3732273 97.9759017,86.2962298 C97.9813789,85.7632082 98.1424555,85.3053722 98.7531524,84.6725179 C99.0583764,84.3672939 99.2443489,84.2283747 99.6050908,83.9868843 L99.7382839,83.8952673 L99.7577027,83.7399167 C99.7631799,83.7287136 99.8769542,82.8267344 99.8769542,81.7108993 C99.8769542,81.1557202 99.8490708,80.5452723 99.7577027,79.9539942 L99.7355454,79.7874405 L99.591149,79.7070266 C99.5772073,79.7125037 99.5356311,79.6569858 99.5050092,79.4461174 C99.3690774,78.80206 99.4801132,77.5809151 99.3745545,76.9926245 C99.1330641,75.8879925 99.0748077,75.1383764 99.0748077,74.6471799 C99.0748077,74.042209 99.1552215,73.8507594 99.1691632,73.5925887 C99.1606986,73.0847119 98.9971324,72.2795779 98.9971324,71.4136978 C98.9971324,70.5811782 99.1552215,69.7538868 99.6688243,69.1987077 C99.9518909,68.8907452 100.151805,68.7657677 100.515535,68.5158127 L100.701507,68.3880966 L100.201846,65.5068918 L100.060188,65.4237394 C100.060188,65.4237394 100.05745,65.4292165 100.035292,65.3682215 C99.9215179,65.1461499 99.835378,64.5078185 99.7410225,63.9332206 C99.6327252,63.461194 99.6411898,63.0060966 99.3357169,62.6896694 C99.6187835,60.6773322 99.7188651,57.7296553 99.7188651,54.4989117 C99.7188651,47.8320333 99.3080824,39.9659184 99.3080824,37.0433863 C99.3220241,36.5825629 99.4885779,36.5076261 99.8547968,36.2078793 C100.210062,35.94697 100.687565,35.4694663 100.668147,34.5869059 C100.737606,33.4765479 100.301679,33.0602881 100.032554,32.9716586 C99.9381982,32.8939833 99.7938018,32.9883389 99.7634288,31.639229 C99.713388,29.9460575 102.114351,27.9033472 104.332079,27.3093306 L104.587511,27.2398709 L104.587511,25.3719301 L104.509836,25.2775745 C104.040797,24.6920225 103.74105,24.4226486 103.405204,23.8537769 L103.255331,23.5928676 L102.986206,23.7011649 C102.289618,23.9705387 98.6869292,24.1370924 95.0536187,24.1313664 C91.0929267,24.1368435 86.8934829,23.956597 85.977562,23.6929492 L85.7111757,23.6180125 L85.5807211,23.8595029 C85.4781499,24.0454754 85.0340067,24.603393 84.6981607,25.0390716 L84.4760891,25.3248768 L84.7703589,25.5387327 C85.6295171,26.1636203 85.6628776,26.4078493 85.9125837,26.6991316 Z M277.532746,21.8974555 L277.532746,25.5252889 C277.532746,26.6578043 276.977567,28.1898993 273.211063,28.1898993 C269.436344,28.1898993 268.845066,26.6578043 268.845066,25.5252889 L268.845066,21.8974555 C268.845066,20.7928235 269.436344,19.2328451 273.211063,19.2328451 C276.977816,19.2328451 277.532746,20.7928235 277.532746,21.8974555 Z M276.772425,21.8337219 C276.772425,20.9733189 276.181147,19.9491007 273.211312,19.9491007 C270.233013,19.9491007 269.616839,20.9733189 269.616839,21.8337219 L269.616839,25.5890225 C269.616839,26.4494255 270.233013,27.495801 273.211312,27.495801 C276.181147,27.495801 276.772425,26.4715828 276.772425,25.6084413 L276.772425,21.8337219 Z M298.763489,0 L298.763489,196.150722 L0,196.150722 L0,0 L298.763489,0 Z M9.44078185,145.594826 L289.322956,145.594826 L289.322956,8.87290591 L9.44078185,8.87290591 L9.44078185,145.594826 Z M275.36232,22.5360358 L275.36232,23.0272323 C275.36232,23.5545279 275.112614,24.1346028 274.313206,24.3788318 L275.159667,26.3271865 C275.190289,26.4270192 275.112365,26.5104205 274.990375,26.5104205 L274.515858,26.5104205 C274.418764,26.5104205 274.377188,26.4270192 274.335363,26.3271865 L273.552635,24.481403 L272.07332,24.481403 L272.07332,26.3271865 C272.07332,26.4270192 272.034482,26.5104205 271.920708,26.5104205 L271.468349,26.5104205 C271.343371,26.5104205 271.301795,26.4270192 271.301795,26.3271865 L271.301795,21.2591241 C271.301795,21.1398726 271.343371,21.0786286 271.468349,21.0786286 L273.411226,21.0786286 C274.973694,21.0786286 275.36232,21.8337219 275.36232,22.5360358 Z M274.585069,22.5748734 C274.585069,22.1225146 274.229804,21.6923131 273.324838,21.6923131 L272.073071,21.6923131 L272.073071,23.8684654 L273.324838,23.8684654 C274.210386,23.8684654 274.585069,23.4382639 274.585069,22.9831665 L274.585069,22.5748734 Z M200.866009,81.7387827 C201.032563,83.1959409 201.129657,88.0394421 201.129657,92.8744788 C201.126918,97.8566503 201.032563,102.727786 200.732816,103.948931 L200.705182,104.073908 L200.594146,104.151584 C200.116642,104.431912 199.436734,106.510721 198.776246,108.689612 C198.096338,110.818462 197.355187,113.102663 196.195037,114.329534 L196.195037,119.514358 L196.056366,119.619668 C195.009991,120.263725 194.83796,124.246575 193.475157,125.856345 L193.475157,129.095553 L193.322545,129.206589 C193.017072,129.41198 192.82861,129.56758 192.57044,129.803344 L192.57044,134.002788 L192.423305,134.113823 C191.654519,134.627177 191.734933,135.112897 190.852372,135.154722 C190.619097,135.174141 190.463747,134.993645 190.391549,134.890825 C190.30267,134.918709 190.136117,134.976965 189.889149,135.118374 L189.375546,135.404179 L189.386749,129.750316 L186.647202,120.810191 L186.647202,118.112469 C186.813756,116.091916 182.178385,114.517996 182.109174,110.257557 L182.109174,110.115899 L182.200791,110.013328 C182.192575,109.985694 187.749096,104.068182 188.007266,96.0106178 L188.004528,95.9939376 C188.154401,95.4554388 185.670286,93.6736378 183.025095,92.2719975 C180.507619,90.8481998 177.929149,89.5879684 177.085426,88.7527102 L175.447773,88.7527102 L176.225023,91.042637 L176.225023,95.966552 C177.440691,96.2884563 178.209477,97.7762365 178.972786,97.8648659 C179.164236,97.870343 179.458505,98.1008793 179.444564,98.3784688 C179.311371,99.1806153 178.212216,99.8772032 178.028982,100.987312 L177.981679,101.292785 L177.667991,101.270628 C177.662514,101.270628 174.881391,101.090132 172.610883,101.090132 C171.478367,101.090132 170.45141,101.140173 170.076727,101.256686 C165.755293,102.699903 160.842332,104.548425 160.834117,104.548425 L160.564992,104.650996 L160.41238,104.404028 C159.23555,102.42779 160.231884,102.971766 159.135468,101.409049 L158.996798,101.200919 L159.141194,101.006482 C160.801005,98.7665962 161.195107,98.3752323 162.360983,97.3233797 C162.383141,96.7711882 162.494177,94.8310491 163.193503,93.6318127 C164.13183,92.2329109 166.188482,91.8303439 165.988568,91.3448734 C166.032883,91.2450408 165.769235,91.0005629 165.233724,90.6510241 L165.053228,90.5287852 L165.080863,90.3206553 C165.080863,90.3206553 165.411231,87.4339734 165.713717,85.8518376 C165.816288,85.4298518 165.838445,85.166204 165.955207,84.921975 C165.824753,84.5333497 165.519529,83.475771 165.511064,82.4184413 C165.51928,81.7579525 165.630316,81.0750575 166.07172,80.5587161 C166.371467,80.2119159 166.657272,80.0620425 166.898763,79.8788085 L166.898763,75.9375354 L167.045898,75.8377027 C167.698171,75.3325645 167.767381,75.3186228 167.800742,74.6496694 C167.759166,74.3387194 167.820161,74.4970575 167.523152,74.3193006 C167.220667,74.2194679 166.795943,73.8056978 166.837519,73.0702723 C166.837519,72.8730966 166.85146,72.6482864 166.90424,72.3624813 C167.018014,71.8239825 167.051375,71.3910425 167.051375,71.0190974 C167.05959,70.1420142 166.821087,69.5674163 166.815361,68.7485895 C166.815361,68.3878476 166.865402,67.9992223 167.00955,67.5550791 C167.450954,66.1534388 168.142065,65.5761024 168.744297,64.4326328 C168.73882,64.4216786 169.773993,62.2537419 169.773993,59.3282223 L169.773993,59.122831 L169.948762,59.0254879 C172.005414,57.9651707 170.778543,53.3661474 172.37462,49.6994763 C173.179505,47.96199 173.762319,46.3106436 174.864212,45.2530649 C174.880893,45.1420291 174.891847,45.0364704 174.891847,44.9366378 C174.900311,44.2898418 174.569943,43.7403888 174.553262,43.0325978 C174.545047,42.702229 174.653095,42.3387485 174.916743,42.0193339 C175.224954,41.6252315 175.546858,41.4835737 175.793826,41.2978501 C175.96038,40.7093106 176.801364,37.911756 177.758861,36.1740208 C178.327982,35.1692215 178.33072,34.6030883 179.537923,33.4899917 L179.537923,29.5347769 L179.68232,29.423741 C180.262395,28.990801 180.23476,28.9103872 180.370692,28.6437519 C180.506624,28.3467435 180.762056,27.9802756 181.589098,27.45298 L181.658558,27.4114038 L181.733495,27.4029392 C182.577217,27.300368 182.685515,26.5592165 182.699456,25.3378226 C182.699456,25.0074538 182.690992,24.6606536 182.690992,24.316343 C182.696469,23.0618376 182.896383,21.5075853 184.656276,21.5018593 C187.701047,21.6462556 187.340305,26.6062698 187.69557,27.1059309 C190.126905,32.4154838 190.79312,31.5662839 190.904156,32.9039417 L190.904156,35.6073897 C190.87926,37.9027935 194.190417,46.4627577 194.218301,46.5070724 L197.074361,57.7565429 C197.360166,57.9980333 197.596179,58.2118893 197.868042,58.4006003 L198.020654,58.5006819 L198.020654,62.4613739 C198.761806,63.1691649 198.99757,63.7270824 198.99757,64.2128018 C198.992093,64.6041657 198.872593,64.8623364 198.883796,65.0316286 C198.886535,65.2148626 198.939314,65.4618301 199.688681,66.0167602 L199.833077,66.1165928 L199.833077,71.4567677 L199.572168,71.509547 C199.566691,71.5790067 199.566691,71.6733622 199.566691,71.7786719 C199.544534,73.7382298 200.510495,80.7436928 200.776882,81.5321465 L200.840615,81.5767102 L200.866009,81.7387827 Z M189.283431,74.6334871 C189.283431,72.6101957 189.250071,70.8503031 189.158454,70.1786112 C188.581117,69.5126453 188.625432,68.2551524 188.450663,66.878408 C188.322947,65.4297144 188.05656,63.925254 187.445863,63.406174 C186.377331,62.3707527 184.967226,62.9259317 183.684837,61.6268626 C182.990988,60.8662923 182.427593,59.62299 182.036229,58.5738759 L181.894571,62.6707485 L181.891833,62.8427794 L181.747436,62.9401224 C181.114582,63.3870042 180.967447,64.0863306 180.734421,64.8356978 C180.542972,65.4907094 180.132189,66.2373381 179.152286,66.4093689 C179.110709,67.5027977 179.016354,71.1806719 178.247319,72.3296187 C178.189062,72.6627261 178.166905,73.1233006 178.166905,73.6535837 C178.166905,75.3188718 178.386238,77.636433 178.386238,79.2825512 C178.386238,79.9266087 178.355616,80.467846 178.250306,80.8729026 L178.216946,81.0006187 C178.722084,80.9478393 179.28274,80.9117402 179.868541,80.9117402 C180.706787,80.9117402 181.617231,80.9811998 182.524687,81.1838526 C185.175356,81.7584505 186.632514,83.5902923 188.378465,84.1203264 C188.583856,84.1315296 188.778293,84.1315296 188.953062,84.1315296 L189.152977,84.1315296 C189.183599,82.8825012 189.283431,78.288955 189.283431,74.6334871 Z M239.404893,107.332535 C239.107885,107.765475 239.052367,107.996012 239.04689,108.259659 C239.035936,108.750856 239.391201,109.528107 239.391201,111.298953 C239.391201,112.400847 239.258007,113.882901 238.825067,116.031419 C238.836271,116.031419 238.827806,116.034157 238.869382,116.089675 C238.910958,116.173077 238.991372,116.28959 239.074774,116.439463 C239.244066,116.73921 239.421574,117.174888 239.421574,117.754963 C239.421574,118.224002 239.313276,118.76524 239.044152,119.436932 C238.550216,120.583389 238.869382,120.908032 236.69323,131.46913 L236.615555,131.843813 L236.254813,131.738255 C236.218714,131.704894 232.951871,130.7586 232.110887,129.970147 C227.281327,125.27378 226.01288,125.001917 223.975647,124.993452 C223.581545,124.993452 223.154082,124.996191 222.668362,124.996191 C222.632263,124.996191 222.601641,125.001917 222.58521,125.001917 L222.310359,125.029551 L222.216003,124.788061 C222.171689,124.671548 222.160485,124.565989 222.160485,124.446738 C222.18812,122.809084 224.880614,116.669501 225.366333,114.038251 C225.582928,112.936358 225.741017,108.320405 225.741017,105.197959 C225.741017,103.782377 225.702179,102.627704 225.638445,102.250282 L225.638445,102.214183 C225.641184,101.742405 225.083266,97.8593888 224.186764,94.117781 C223.36246,90.365219 221.916256,86.6432789 220.967224,86.5683422 L220.662,86.4906669 L220.703576,86.1797169 C220.975689,84.0147677 221.566718,81.0558876 221.563979,79.9096794 C221.572195,79.698811 221.550037,79.5877752 221.539083,79.5793106 C220.203915,77.0396778 217.506193,71.9825695 215.951692,71.2887202 C216.00721,71.7522823 216.059989,72.1351815 216.059989,72.5295329 C216.059989,73.4038776 215.804557,74.2363972 214.980253,75.9796095 C214.616773,76.7040808 214.083751,77.4507094 214.100431,77.9946853 C214.100431,78.0335229 214.100431,78.0529417 214.105908,78.0750991 L214.125327,78.1721932 L214.091967,78.2443913 L214.091967,78.3693689 C214.083502,80.7591282 216.426208,99.8134696 216.428947,101.598258 C216.428947,101.631619 216.428947,101.639834 216.428947,101.639834 L216.451104,101.847964 L216.262393,101.961739 C216.270609,101.972942 216.253928,101.978419 216.201398,102.028211 C216.151357,102.089206 216.079159,102.172607 216.020903,102.280904 C215.887709,102.483557 215.776674,102.749943 215.776674,103.005376 C215.776674,103.041475 215.776674,103.055416 215.785138,103.085789 C215.72962,103.291181 216.459569,103.804784 216.576082,104.69556 C216.66496,105.814133 216.756577,107.129883 216.756577,108.473266 C216.756577,110.416144 216.581808,112.411801 215.943227,113.955099 C216.05974,115.953495 216.892509,120.957823 216.892509,123.322687 C216.892509,123.641853 216.881306,123.919442 216.839729,124.155455 L216.828526,124.233131 L216.775747,124.299603 C216.464797,124.763165 216.314923,124.779845 215.965385,125.010132 C216.012687,125.384816 216.109781,125.939995 216.109781,126.819817 C216.109781,128.030007 215.929286,129.853385 215.246639,132.770689 L214.980253,133.922623 L214.577686,132.809526 C212.582029,127.36927 209.462321,124.085747 206.83381,121.970838 C204.197083,119.764313 202.070972,119.117517 201.884999,117.765918 C201.932052,117.715877 205.062963,106.499767 206.459127,105.170325 C206.575639,104.984352 206.659041,104.448841 206.653564,103.851837 C206.653564,102.994172 206.528586,101.989373 206.434231,101.339838 C206.167844,101.098348 205.973407,100.934782 205.659968,100.723664 L205.493414,100.612629 L205.507356,100.412714 C205.51831,100.224003 205.51831,97.315164 205.51831,93.5792823 C205.51831,86.4794638 205.507356,76.2985262 205.507356,75.2327319 C205.17151,74.6192964 205.346279,73.6812182 205.168771,73.4175704 L205.179974,73.4120933 L205.044042,73.3204763 L204.604629,69.4347211 C204.224469,68.879542 203.988455,67.8331665 203.841321,67.8194738 L203.688709,67.7169026 L203.683231,67.5421332 C203.683231,67.5336686 203.661074,66.5761715 203.661074,65.6186744 C203.661074,65.1969376 203.661074,64.7664871 203.683231,64.425164 C203.488794,64.0920566 203.480579,63.6979542 203.394688,63.2122348 C203.32249,62.6655204 203.225396,62.0715037 203.136517,61.8661124 L203.141994,61.843955 L202.97544,61.7301807 L202.992121,61.533005 C202.992121,61.533005 202.994859,61.4219692 202.994859,61.2223039 C203.003075,60.6365029 202.9254,59.3127868 202.564658,58.5686478 C202.203916,58.0968701 202.303749,57.444597 202.212132,56.5702523 C202.184248,55.8042048 202.106573,54.9410633 202.031636,54.7550908 L201.9206,54.6774155 L201.867821,49.9977294 C201.121192,49.2511007 200.927004,48.8208993 200.924017,48.4322739 C200.926755,48.2796619 200.951651,48.1825679 200.948913,48.1464688 C200.951651,48.1407427 200.968331,47.9908693 200.199545,47.4332007 L200.074568,47.3415837 L200.060626,47.1944488 C199.91623,46.0925554 199.844032,44.5383031 199.844032,42.9783247 C199.844032,41.4156078 199.91623,39.8501524 200.060626,38.7512465 L200.066103,38.6347336 L200.149256,38.5513322 C201.64799,37.0832198 205.819799,34.9902198 208.600923,31.1268709 C207.893132,30.8687002 206.027929,30.3829808 205.64503,30.3135212 C205.611669,30.3411557 205.556152,30.4106153 205.489679,30.4940167 C205.361963,30.6578318 205.178729,30.918741 204.820726,31.0297769 C204.50156,31.1186553 204.251854,31.2685287 203.852026,31.2740058 C203.571698,31.2740058 203.285893,31.1878659 202.961001,31.0018934 L202.791709,30.9047993 L202.780505,30.7160883 C202.716772,29.2810874 201.098537,27.4659259 199.408104,26.0530824 C197.853852,24.7291174 196.410386,23.8186736 195.927654,23.4081399 L192.61351,22.6893947 L192.677243,21.9955454 L205.828015,21.631816 C207.01331,21.0851016 207.263016,21.0017002 208.123419,21.015642 C209.011705,20.9685887 209.19469,21.357214 209.663978,21.9955454 L214.451962,21.9955454 L214.50748,22.0926395 C214.560259,22.1120583 214.632457,22.1481574 214.729551,22.1760408 C214.929465,22.2591932 215.218009,22.3565362 215.565058,22.4730491 C216.261646,22.7090624 217.177567,23.0003447 218.090749,23.2918759 C219.878276,23.8552706 221.648874,24.3910308 221.640659,24.402234 C221.86273,24.402234 222.167954,24.3882923 222.506539,24.3882923 C222.83392,24.3882923 223.21433,24.3994954 223.608432,24.4577519 C225.182103,24.6658818 226.600424,25.6928385 227.752358,26.6393813 C228.834833,27.5886628 229.859051,28.4490658 229.920046,28.3798551 L230.139379,28.3798551 L234.788443,38.1915862 C234.935578,38.6217877 234.94952,39.3572132 234.954997,40.237035 C234.954997,41.9247294 234.824542,43.9841199 234.824542,43.9841199 L234.802385,44.1588893 L234.67193,44.2559833 C234.663714,44.2559833 234.449858,44.6779692 234.330607,45.1497469 C234.186211,45.5687452 234.111274,45.9658351 233.90887,46.2737977 C233.922812,46.7874005 233.928289,47.3619983 233.928289,47.8975096 C233.928289,49.0658751 233.90887,50.0985579 233.886713,50.1819592 C232.190803,56.870995 229.037734,62.2472689 223.231259,62.466602 C223.236736,63.2826903 223.256155,63.7823514 223.256155,64.1152098 C223.270097,64.8230008 223.070182,64.9673972 222.684296,65.3363547 C222.764709,65.3418318 222.839646,65.3418318 222.917321,65.3418318 C223.600216,65.3500475 224.171827,65.0891382 224.935136,65.078184 C226.014872,65.078184 227.191702,65.6831549 229.153998,68.0480183 C230.458545,68.6447735 230.133902,70.2490666 230.319625,70.8597635 C230.375143,71.0873122 230.416719,71.1094696 230.480702,71.1288884 C231.180028,71.3870591 231.563177,71.5396711 231.826824,71.6840674 C232.090472,71.8033189 232.28466,72.1282107 232.257026,72.3472948 C232.248561,72.4750108 232.234868,72.5584122 232.243084,72.6637219 C232.243084,72.858159 232.270968,73.1494413 232.534615,73.7046203 C232.812205,74.4014571 232.901083,76.5079009 233.242406,76.7439142 C233.603148,77.4295479 233.61709,79.5110958 233.714184,81.7318118 C233.766963,83.8634005 233.96389,86.1864388 234.088868,86.2088451 L234.088868,86.2115837 C234.324881,86.4197136 234.269363,86.6168893 234.357993,86.8665953 C234.41351,87.1636037 234.463551,87.5133913 234.543965,87.8519759 C234.671681,88.5791857 234.954748,89.0148643 235.118563,88.9844913 C235.174081,88.9844913 235.301797,88.9483922 235.493246,88.8318793 L235.804197,88.6292265 L235.981704,88.9568568 C236.439789,89.8478818 237.572056,98.8851007 237.710975,99.609572 L237.730394,99.7539684 L237.660934,99.8759584 C237.433386,100.106246 237.09754,102.784798 237.09754,103.214999 C237.161273,103.317819 237.480439,103.437071 238.030141,103.570264 L238.168811,103.600637 L238.241009,103.722876 C238.588058,104.305689 239.417839,106.115374 239.465142,107.059178 L239.506718,107.186894 L239.404893,107.332535 Z M222.520978,52.0070791 C222.487618,51.7904846 222.479402,51.5601973 222.479402,51.324184 C222.479402,50.3470192 222.682055,49.3479459 222.684794,49.3342531 L222.767946,48.9095287 L222.978814,49.0011457 C223.014913,48.9234704 223.059228,48.8121857 223.098066,48.7013988 C223.214579,48.4599084 223.236736,48.2017377 223.43665,47.9799151 L223.450592,46.0758751 C223.445115,46.0758751 223.556151,45.6957144 223.556151,45.0212839 C223.556151,44.1636195 223.381381,42.8812306 222.598654,41.457433 C222.584712,41.4407527 221.210955,39.4978751 219.573301,37.552259 C217.963531,35.5927011 215.912356,33.6719808 215.137844,33.7414405 C214.929714,33.7357144 214.743742,33.7274988 214.568724,33.7274988 L214.374535,33.7274988 L214.374535,60.5784954 C214.638183,60.6006528 215.04075,60.6230591 215.454271,60.6230591 C215.804059,60.6312748 216.178743,60.6063789 216.459071,60.5535995 C217.935648,60.2899517 219.503842,59.2186803 219.878525,58.7162806 C220.716771,57.6803614 221.904804,53.5252323 222.520978,52.0070791 Z M273.272307,53.2615845 C273.272307,53.2615845 273.616369,58.2161216 273.616369,62.1628718 C273.605415,64.144587 273.535955,65.83502 273.258366,66.6620624 L273.216789,66.7648826 L273.130649,66.8343422 C272.883682,66.9232206 272.439539,68.4856886 271.88436,69.1852639 C271.867679,69.3933938 271.859464,69.6211915 271.859464,69.8514788 C271.859464,70.9366919 272.009337,72.2245579 272.009337,73.4735862 C272.009337,74.5642764 271.898301,75.6245937 271.432001,76.507154 C270.643796,78.3140999 269.6502,79.2994804 269.305889,79.6296003 L268.714611,84.1038951 C267.859685,86.3076819 268.373288,86.746348 268.045658,87.3928951 C268.106653,88.2505595 268.567476,95.0673114 268.567476,100.185415 C268.567476,102.430778 268.484324,104.332079 268.201008,105.406338 C267.582096,106.846816 267.501682,108.417749 267.501682,110.07756 C267.501682,110.52718 267.507159,110.9768 267.507159,111.437624 C267.501682,113.161168 267.440438,114.954172 266.749327,116.666763 L265.800046,121.782127 C265.000638,123.983176 264.986696,124.454953 263.909948,125.7595 C263.432693,126.741893 263.224314,127.041888 262.941247,127.244292 C262.680338,127.424788 262.6415,127.355328 262.19188,127.863205 C261.789562,128.915057 259.929837,129.206589 257.792522,129.886496 C255.52774,130.505409 252.940805,131.157682 251.672358,131.843316 C251.575264,131.87095 251.491863,131.876427 251.414187,131.876427 C250.448226,131.820909 249.2104,130.713539 248.758042,130.774534 C248.702524,130.774534 248.702524,130.782749 248.694308,130.785737 C248.314147,131.479586 247.300883,131.626721 246.113099,131.912775 C244.844652,132.16522 243.387494,132.312355 242.465847,132.312355 C242.046848,132.309616 241.791416,132.309616 241.527769,132.190365 L241.114247,131.965555 L241.450093,131.635186 C242.779535,130.303005 244.122919,128.065858 244.358933,125.403986 C244.36441,125.25959 244.372874,125.104239 244.372874,124.940424 C244.378351,122.858876 243.309818,119.972194 243.304341,119.972194 L243.18509,119.653028 L243.498779,119.530789 C244.803325,119.06175 247.537146,117.779361 247.345696,117.293642 C247.345696,117.02153 247.292917,116.905017 247.278975,116.891324 C247.265033,116.882859 247.278975,116.891324 247.237399,116.877382 C247.223457,116.868918 247.195823,116.868918 247.14852,116.868918 C246.979228,116.868918 246.621225,116.877382 246.426788,116.463612 L245.371948,113.851781 L243.517948,109.582878 L245.197178,92.946179 C243.109904,90.6619784 241.167027,84.1170899 241.114247,83.4869742 L241.114247,80.7862648 C241.194661,80.0035371 240.292682,79.8842856 240.20953,78.6018968 C240.20953,78.6018968 239.992935,75.3323156 239.992935,72.8397361 C240.001151,71.76 240.015092,70.8856553 240.153763,70.3304763 C239.923475,70.1223464 239.737503,69.9697344 239.457175,69.7810233 L239.285144,69.6699875 L239.659828,63.3304904 C239.457175,62.966761 239.445972,62.4977219 239.32672,61.8982281 C239.224149,61.2404779 239.112864,60.5160067 239.007555,60.2411557 L239.016019,60.2023181 L238.854943,60.0940208 L238.854943,41.5614979 L239.016019,41.4559392 C239.307301,41.256025 239.501739,41.0757785 239.765386,40.8452423 L239.765386,33.6981216 L239.923475,33.5953014 C240.215007,33.3981257 240.409195,33.2151407 240.672843,32.987592 L240.672843,27.898368 C239.737503,27.0046045 232.895606,20.4985537 232.57644,20.1074388 L232.124082,19.5413056 L237.364424,19.5413056 L237.466995,19.7190624 C237.64749,20.0437052 237.808318,20.2520841 238.019435,20.5266861 L241.086364,20.5266861 L241.141882,20.8070142 C241.083625,21.717458 245.4551,22.2308118 247.536897,24.4512789 L250.531876,24.4512789 L250.631709,24.6233097 C250.942659,25.1506053 251.225725,25.4281948 251.630782,25.9251174 L254.614558,25.9251174 L254.722855,26.0998868 C254.906089,26.421791 255.064178,26.635647 255.272557,26.9075104 L259.166777,26.9075104 L259.263871,27.0795412 C259.449843,27.4069226 259.602455,27.6207785 259.810585,27.8871649 L264.037664,27.8871649 L264.143222,28.0591957 C265.494822,30.2741857 268.145739,31.7146636 268.700669,32.7528235 C271.787017,39.2364679 271.162627,39.8001116 272.217218,40.4800192 L272.36983,40.5825903 L272.114398,49.9641199 C272.341947,50.3193847 272.436302,50.8384646 272.636216,51.4601157 C272.827666,52.1290691 273.049738,52.8672331 273.155296,53.0116295 L273.266332,53.0865662 L273.272307,53.2615845 Z M263.779991,58.146413 C263.111037,57.5635995 262.822494,56.3367286 262.503328,55.0989034 C262.192378,53.7943572 261.906573,52.3845012 261.803753,52.2816811 C260.7519,50.7217027 258.561806,50.1695112 258.348199,47.7436528 C256.185988,47.5076395 255.891719,45.6342215 255.045257,45.8062523 C253.315987,45.8007752 252.425211,45.6757977 251.117677,45.6757977 C250.704156,45.6757977 250.248809,45.6840133 249.721514,45.7173739 L249.360772,49.1174097 L249.618943,50.2942398 C249.618943,50.2942398 249.999103,60.1751815 249.999103,63.8779517 C249.993377,64.2028435 249.993377,64.4607652 249.993377,64.6746211 C249.993377,64.6830858 250.007319,64.6885629 250.012796,64.6967785 C250.107152,64.8688093 250.215449,65.0908809 250.312543,65.3129525 C250.512457,65.7570958 250.692704,66.1900358 250.701168,66.1900358 L250.720587,66.2567569 L250.720587,66.3262165 C250.648389,67.4226328 251.830696,71.8023231 252.352764,71.9136078 L252.538736,72.0107019 L252.408281,115.392838 C253.751665,113.746969 256.77154,109.544787 256.757599,105.336878 C256.757599,105.184266 256.757599,105.031654 256.760337,104.767758 C257.779078,101.292785 258.903129,100.127158 259.241714,98.1481815 C259.241714,98.1427044 259.236236,98.114821 259.236236,98.0647802 C259.255655,96.9768285 259.222295,80.2455254 259.866352,78.0362614 C259.863614,77.8836495 259.85241,77.733776 259.85241,77.5866411 C259.846933,75.0664271 261.165172,73.981214 261.628734,73.6842057 C261.795288,72.7461274 262.444823,68.3273505 263.779742,67.1393172 L263.779742,58.146413 L263.779991,58.146413 Z M35.6307918,170.330665 C35.0512148,169.794158 34.2557902,169.313916 33.2589575,168.898154 C33.9879101,168.54986 34.5779434,168.172189 35.019348,167.770867 C36.3485412,166.580344 37.0224738,164.932732 37.0224738,162.873839 C37.0224738,160.26873 36.0741882,158.357719 34.2064963,157.195578 C32.6039459,156.182065 29.9074688,155.689375 25.9629592,155.689375 L15.3732306,155.689375 L15.3732306,184.501672 L25.7281907,184.501672 C29.3744471,184.501672 32.0935795,184.039355 33.8089084,183.127915 C36.4087893,181.759635 37.7270283,179.35693 37.7270283,175.98652 C37.7270283,173.528546 37.0219759,171.625751 35.6307918,170.330665 Z M30.3063014,163.813411 C30.3063014,162.798903 29.9826545,162.117003 29.3171865,161.728627 C28.7261574,161.386059 27.5973764,161.212037 25.9627102,161.212037 L22.187244,161.212037 L22.187244,166.982413 L25.1408959,166.982413 C27.0404546,166.982413 28.3250841,166.812623 28.9591832,166.477773 C29.8643988,165.985082 30.3063014,165.112729 30.3063014,163.813411 Z M22.187244,178.979757 L25.4346678,178.979757 C27.3374629,178.979757 28.7124646,178.722333 29.5223289,178.214705 C30.3804913,177.692887 30.7955062,176.843189 30.7955062,175.615073 C30.7955062,174.110115 30.2241449,173.140917 29.0488085,172.65221 C28.276786,172.333791 26.6784679,172.171968 24.2994138,172.171968 L22.187244,172.171968 L22.187244,178.979757 Z M53.9763464,155.689624 L41.920746,184.501921 L49.0823064,184.501921 L51.3722331,178.376031 L62.9311599,178.376031 L65.2601732,184.501921 L72.7331815,184.501921 L60.6775812,155.689624 L53.9763464,155.689624 Z M57.1418626,163.171097 L53.4918718,172.893202 L60.8090316,172.893202 L57.1418626,163.171097 Z M72.7976619,161.486141 L81.2525654,161.486141 L81.2525654,184.50217 L88.0665787,184.50217 L88.0665787,161.486141 L96.5214821,161.486141 L96.5214821,155.689873 L72.7976619,155.689873 L72.7976619,161.486141 Z M102.175097,161.486141 L110.63,161.486141 L110.63,184.50217 L117.444013,184.50217 L117.444013,161.486141 L125.898917,161.486141 L125.898917,155.689873 L102.175097,155.689873 L102.175097,161.486141 Z M139.814989,155.689624 L133.001225,155.689624 L133.001225,184.501921 L151.440637,184.501921 L151.440637,178.705653 L139.814989,178.705653 L139.814989,155.689624 Z M165.57181,172.622086 L176.884267,172.622086 L176.884267,167.001832 L165.57181,167.001832 L165.57181,161.485892 L178.606567,161.485892 L178.606567,155.689624 L158.757797,155.689624 L158.757797,184.501921 L178.782581,184.501921 L178.782581,178.705653 L165.57181,178.705653 L165.57181,172.622086 Z M190.113959,177.198703 C189.010821,177.198703 188.054569,177.530814 187.274828,178.183087 C186.339489,178.945898 185.865221,179.91908 185.865221,181.075495 C185.865221,182.126601 186.23144,183.025344 186.948941,183.742346 C187.774739,184.597023 188.813396,185.030461 190.035786,185.030461 C191.0849,185.030461 192.020738,184.699097 192.815415,184.046575 C193.738058,183.296958 194.205853,182.310582 194.205853,181.114582 C194.205853,180.077169 193.846604,179.191372 193.139809,178.484577 C192.300319,177.631394 191.282574,177.198703 190.113959,177.198703 Z M219.959437,172.498602 L209.007473,155.689624 L202.83453,155.689624 L202.83453,184.501921 L209.296266,184.501921 L209.296266,166.808142 L221.092201,184.501921 L226.421173,184.501921 L226.421173,155.689624 L219.959437,155.689624 L219.959437,172.498602 Z M243.07754,172.622086 L254.389997,172.622086 L254.389997,167.001832 L243.07754,167.001832 L243.07754,161.485892 L256.112296,161.485892 L256.112296,155.689624 L236.263526,155.689624 L236.263526,184.501921 L256.288311,184.501921 L256.288311,178.705653 L243.07754,178.705653 L243.07754,172.622086 L243.07754,172.622086 Z M261.844084,155.689624 L261.844084,161.485892 L270.298988,161.485892 L270.298988,184.501921 L277.112752,184.501921 L277.112752,161.485892 L285.567655,161.485892 L285.567655,155.689624 L261.844084,155.689624 Z" id="Shape"></path>
                        </g>
                    </g>
                </g>
            </g>
        </g>
    </g>
</svg>